<svg width="461" height="442" viewBox="0 0 461 442" fill="none" xmlns="http://www.w3.org/2000/svg">
<ellipse rx="223.992" ry="210.139" transform="matrix(-1 0 0 1 236.746 210.139)" fill="url(#paint0_linear)"/>
<path fill-rule="evenodd" clip-rule="evenodd" d="M269.738 401.059C269.794 401.026 270.146 401.491 270.666 402.405C271.188 403.316 271.838 404.7 272.442 406.486C273.679 410.045 274.456 415.299 273.996 421.029C273.539 426.758 272.214 431.787 271.193 435.367C270.147 438.948 269.378 441.122 269.245 441.085C269.099 441.045 269.618 438.795 270.476 435.179C271.312 431.564 272.504 426.561 272.951 420.949C273.4 415.339 272.761 410.233 271.734 406.703C270.737 403.155 269.573 401.145 269.738 401.059Z" fill="white"/>
<path fill-rule="evenodd" clip-rule="evenodd" d="M273.268 372.386C273.334 372.357 273.759 373.135 274.469 374.571C275.178 376.006 276.175 378.099 277.354 380.709C279.693 385.931 282.84 393.239 285.123 401.725C286.246 405.969 287.011 410.096 287.398 413.885C287.789 417.674 287.828 421.116 287.633 423.989C287.444 426.864 287.081 429.17 286.732 430.739C286.386 432.31 286.112 433.156 286.051 433.143C285.857 433.105 286.712 429.646 286.893 423.955C287.119 418.275 286.373 410.385 284.111 401.995C281.854 393.602 278.835 386.289 276.674 381.003C275.586 378.358 274.706 376.217 274.096 374.737C273.502 373.251 273.202 372.415 273.268 372.386Z" fill="white"/>
<path fill-rule="evenodd" clip-rule="evenodd" d="M142.61 349.69C142.731 349.82 141.543 350.953 140.001 353.057C139.619 353.585 139.203 354.163 138.814 354.823C138.389 355.459 138.019 356.189 137.607 356.942C136.841 358.478 136.115 360.223 135.554 362.123C135.018 364.03 134.705 365.894 134.537 367.602C134.486 368.458 134.411 369.274 134.432 370.038C134.411 370.804 134.455 371.515 134.498 372.166C134.685 374.767 135.089 376.358 134.917 376.405C134.812 376.441 134.147 374.904 133.761 372.242C133.669 371.577 133.581 370.846 133.564 370.056C133.504 369.266 133.547 368.421 133.574 367.531C133.694 365.758 133.99 363.813 134.548 361.834C135.129 359.86 135.912 358.056 136.754 356.49C137.204 355.722 137.617 354.984 138.088 354.347C138.522 353.686 138.986 353.114 139.418 352.6C141.16 350.551 142.541 349.604 142.61 349.69Z" fill="white"/>
<path fill-rule="evenodd" clip-rule="evenodd" d="M145.398 358.87C145.486 359.01 144.824 359.516 143.959 360.485C143.522 360.963 143.06 361.583 142.607 362.301C142.172 363.031 141.756 363.869 141.429 364.793C141.116 365.722 140.928 366.639 140.82 367.483C140.734 368.327 140.715 369.099 140.765 369.746C140.849 371.041 141.059 371.848 140.902 371.905C140.79 371.952 140.319 371.213 140.031 369.845C139.881 369.162 139.819 368.327 139.858 367.401C139.919 366.478 140.096 365.467 140.438 364.452C140.794 363.442 141.279 362.537 141.8 361.772C142.339 361.018 142.903 360.399 143.442 359.955C144.512 359.054 145.339 358.762 145.398 358.87Z" fill="white"/>
<path fill-rule="evenodd" clip-rule="evenodd" d="M106.689 263.927C106.743 263.88 107.212 264.341 108.016 265.221C108.425 265.656 108.908 266.205 109.419 266.881C109.935 267.551 110.556 268.295 111.138 269.19C111.439 269.631 111.754 270.093 112.082 270.575C112.407 271.06 112.701 271.591 113.029 272.127C113.7 273.191 114.302 274.393 114.956 275.646C116.192 278.189 117.373 281.075 118.314 284.203C119.224 287.341 119.802 290.406 120.148 293.211C120.28 294.619 120.428 295.955 120.443 297.212C120.459 297.84 120.5 298.446 120.491 299.03C120.478 299.612 120.464 300.171 120.452 300.705C120.449 301.774 120.332 302.735 120.264 303.579C120.202 304.423 120.095 305.146 119.988 305.733C119.792 306.909 119.649 307.551 119.577 307.541C119.393 307.517 119.741 304.91 119.712 300.697C119.702 300.17 119.692 299.62 119.683 299.045C119.67 298.471 119.609 297.875 119.575 297.258C119.523 296.022 119.345 294.711 119.19 293.33C118.797 290.58 118.202 287.58 117.309 284.5C116.385 281.43 115.254 278.588 114.088 276.065C113.468 274.823 112.904 273.626 112.277 272.56C111.969 272.023 111.696 271.49 111.395 271.001C111.091 270.514 110.8 270.046 110.521 269.599C108.256 266.047 106.546 264.048 106.689 263.927Z" fill="white"/>
<path fill-rule="evenodd" clip-rule="evenodd" d="M118.553 268.835C118.642 268.756 119.845 269.881 121.375 272.05C122.146 273.13 122.957 274.491 123.747 276.06C124.514 277.64 125.246 279.434 125.83 281.378C126.397 283.328 126.757 285.232 126.972 286.975C127.161 288.722 127.22 290.305 127.159 291.63C127.053 294.282 126.655 295.881 126.537 295.863C126.369 295.842 126.504 294.223 126.418 291.629C126.384 290.333 126.25 288.794 126.015 287.101C125.753 285.412 125.375 283.569 124.826 281.676C124.258 279.787 123.574 278.035 122.875 276.475C122.153 274.925 121.429 273.561 120.753 272.453C119.415 270.23 118.423 268.944 118.553 268.835Z" fill="white"/>
<path fill-rule="evenodd" clip-rule="evenodd" d="M77.0098 354.555L76.0978 352.693L50.7081 372.09L61.7848 390.032L87.0587 368.726L77.0098 354.555Z" fill="#B57AD2"/>
<path fill-rule="evenodd" clip-rule="evenodd" d="M51.7721 372.505L61.5029 389.331L62.1251 389.053L53.4596 373.321L51.7721 372.505Z" fill="#D7D4D4"/>
<path fill-rule="evenodd" clip-rule="evenodd" d="M76.5083 354.188L51.7721 372.506C51.7721 372.506 51.8758 372.899 52.4896 373.141C53.1042 373.384 53.4596 373.322 53.4596 373.322L79.4654 355.526C79.4654 355.526 77.9663 355.177 77.4226 354.772C76.8781 354.364 76.5083 354.188 76.5083 354.188Z" fill="#B57AD2"/>
<path fill-rule="evenodd" clip-rule="evenodd" d="M80.1014 354.808L52.9951 372.911L61.7987 389.593L63.2171 391.903L90.324 371.844C90.324 371.844 87.4691 367.583 85.7549 365.011C84.0407 362.438 80.6756 356.371 80.4925 355.983C80.3088 355.594 80.1014 354.808 80.1014 354.808Z" fill="#B57AD2"/>
<path fill-rule="evenodd" clip-rule="evenodd" d="M303.638 229.828L304.404 228.265L325.725 244.553L316.423 259.62L295.2 241.727L303.638 229.828Z" fill="#775298"/>
<path fill-rule="evenodd" clip-rule="evenodd" d="M324.832 244.9L316.661 259.029L316.138 258.797L323.415 245.586L324.832 244.9Z" fill="#D7D4D4"/>
<path fill-rule="evenodd" clip-rule="evenodd" d="M304.06 229.518L324.832 244.9C324.832 244.9 324.744 245.23 324.229 245.434C323.713 245.637 323.414 245.586 323.414 245.586L301.576 230.641C301.576 230.641 302.835 230.349 303.292 230.008C303.749 229.666 304.06 229.518 304.06 229.518Z" fill="#F5F3F3"/>
<path fill-rule="evenodd" clip-rule="evenodd" d="M301.043 230.04L323.805 245.241L316.412 259.251L315.221 261.19L292.458 244.345C292.458 244.345 294.856 240.767 296.295 238.607C297.735 236.447 300.561 231.352 300.714 231.026C300.868 230.7 301.043 230.04 301.043 230.04Z" fill="#B57AD2"/>
<path fill-rule="evenodd" clip-rule="evenodd" d="M46.6976 200.511C46.6976 200.511 45.0878 201.625 45.8923 203.482C46.6976 205.339 50.2266 210.849 54.9941 210.663C55.1893 210.656 48.9883 200.511 48.9883 200.511H46.6976Z" fill="#FF7B5B"/>
<path fill-rule="evenodd" clip-rule="evenodd" d="M39.4046 302.081C39.4046 302.081 33.443 296.756 31.5343 297.71C29.2025 298.876 15.8556 311.951 16.3772 318.111C16.5915 320.634 19.5288 318.473 24.7629 313.044C29.9986 307.616 36.5908 309.942 36.5908 309.942L39.4046 302.081Z" fill="#B57AD2"/>
<path fill-rule="evenodd" clip-rule="evenodd" d="M53.8888 311.061L46.6919 306.744C46.6919 306.744 28.037 324.231 30.9514 326.563C33.1621 328.331 34.4614 326.745 39.6963 321.316C44.9304 315.889 51.5623 319.01 51.5623 319.01L53.8888 311.061Z" fill="#B57AD2"/>
<path fill-rule="evenodd" clip-rule="evenodd" d="M97.8517 253.53L99.2014 272.692L69.2426 264.889L97.8517 253.53Z" fill="#F3A683"/>
<path fill-rule="evenodd" clip-rule="evenodd" d="M69.2425 265.548C69.2425 265.548 95.4482 267.199 98.9376 266.035C98.9376 266.035 104.059 316.34 94.9464 321.767C85.8333 327.195 65.3833 319.247 65.3833 319.247L70.9049 308.391L82.8098 307.616V288.23L81.9557 288.424L69.2425 265.548Z" fill="#112129"/>
<path fill-rule="evenodd" clip-rule="evenodd" d="M36.3932 299.86C36.3932 299.86 29.8017 302.575 31.9345 309.166C31.9345 309.166 54.435 326.807 65.3836 322.736C71.5175 320.455 78.1067 303.054 82.7163 288.188L98.9379 266.034C98.9379 266.034 91.2873 266.417 88.735 266.407C83.857 266.389 69.2429 265.547 69.2429 265.547C69.2429 265.547 61.609 305.483 58.889 306.452C56.169 307.42 36.3932 299.86 36.3932 299.86Z" fill="#22343D"/>
<path fill-rule="evenodd" clip-rule="evenodd" d="M75.3492 215.459C75.3492 215.459 91.0546 200.725 93.7685 196.847C96.4824 192.97 102.301 179.981 109.472 174.554L105.983 167.187C105.983 167.187 108.117 166.024 109.472 169.125C109.472 169.125 114.513 159.045 115.676 159.238C116.841 159.432 113.351 166.993 113.351 166.993C113.351 166.993 118.199 160.014 119.556 160.208C120.911 160.402 116.065 168.054 116.065 168.054C116.065 168.054 121.493 161.759 122.269 162.534C123.045 163.31 118.004 168.054 118.004 168.054C118.004 168.054 123.432 164.937 124.014 165.964C124.596 166.993 118.586 169.707 118.586 169.707C118.586 169.707 118.004 174.165 114.321 176.104C114.321 176.104 107.027 195.807 100.435 202.204L79.258 224.21L75.3492 215.459Z" fill="#FFC6B2"/>
<path fill-rule="evenodd" clip-rule="evenodd" d="M56.6017 223.095C56.6017 223.095 41.7206 238.66 37.8179 241.336C33.9144 244.013 20.8711 249.709 15.3762 256.83L8.04123 253.272C8.04123 253.272 6.85852 255.393 9.94759 256.779C9.94759 256.779 -0.181303 261.725 0.00247081 262.89C0.184719 264.055 7.77891 260.637 7.77891 260.637C7.77891 260.637 0.753578 265.419 0.935064 266.777C1.11655 268.135 8.81369 263.36 8.81369 263.36C8.81369 263.36 2.46778 268.728 3.23643 269.511C4.00355 270.294 8.79615 265.299 8.79615 265.299C8.79615 265.299 5.62853 270.697 6.65187 271.288C7.67368 271.879 10.444 265.895 10.444 265.895C10.444 265.895 14.908 265.357 16.8822 261.691C16.8822 261.691 35.547 254.265 42.0073 247.734L65.2344 231.278L56.6017 223.095Z" fill="#FFC6B2"/>
<path fill-rule="evenodd" clip-rule="evenodd" d="M62.1804 216.891L54.6541 224.258L56.5628 232.563C56.5628 232.563 63.9778 250.362 65.0987 254.705C66.8411 261.457 64.0227 271.752 64.0227 271.752C64.0227 271.752 76.5933 270.709 88.0315 270.321C99.4689 269.933 103.211 266.249 103.211 266.249C103.211 266.249 93.2938 233.224 86.4469 223.992C79.5993 214.762 77.1088 211.872 77.1088 211.872L67.0272 214.076L62.1804 216.891Z" fill="white"/>
<path fill-rule="evenodd" clip-rule="evenodd" d="M84.269 222.905L92.111 217.894C92.111 217.894 93.3089 212.527 83.8518 206.195L72.7621 213.144L84.269 222.905Z" fill="white"/>
<path fill-rule="evenodd" clip-rule="evenodd" d="M56.2402 223.676C51.9409 224.279 44.0844 235.174 43.2083 235.153C43.2083 235.153 48.7375 244.176 53.1175 244.468C53.1175 244.468 72.3924 221.411 56.2402 223.676Z" fill="white"/>
<path fill-rule="evenodd" clip-rule="evenodd" d="M71.4162 216.587C71.4162 216.587 65.1671 211.919 65.3837 210.057C65.4386 209.589 66.3049 208.828 66.5298 208.152C67.7415 204.517 61.8996 195.152 58.3103 193.178C55.4866 191.626 56.7242 191.489 50.7817 195.02C44.8392 198.55 48.2249 204.656 50.8786 207.814C53.3873 210.799 56.2606 212.078 58.8456 212.294L62.5211 220.457L71.4162 216.587Z" fill="#FFC6B2"/>
<path fill-rule="evenodd" clip-rule="evenodd" d="M60.1404 223.068C58.9584 220.169 61.1965 216.518 65.1396 214.91C69.0843 213.301 73.2379 214.347 74.4221 217.244C75.6033 220.142 71.635 224.499 69.4198 225.402C67.2046 226.306 61.3216 225.965 60.1404 223.068Z" fill="#FFC6B2"/>
<path fill-rule="evenodd" clip-rule="evenodd" d="M50.8789 207.815C50.8789 207.815 48.8521 207.703 48.6271 209.053C48.4014 210.404 52.3422 210.404 53.8063 209.391L50.8789 207.815Z" fill="#FFC6B2"/>
<path fill-rule="evenodd" clip-rule="evenodd" d="M51.8924 209.053C51.5073 206.612 48.9063 204.798 49.0359 202.419C50.2827 202.429 51.0833 200.885 50.516 199.566C50.2926 199.047 49.9144 198.603 49.6726 198.092C49.4317 197.581 49.3676 196.911 49.7375 196.622C49.9128 196.486 50.15 196.462 50.3772 196.439C52.2256 196.25 55.3925 196.804 57.0937 196.173C58.7134 195.573 60.4489 194.406 60.2804 192.422C60.1332 190.694 58.6074 189.294 57.2058 188.235C56.4029 187.629 54.1084 186.042 53.2429 186.186C51.9214 186.406 51.6011 188.168 51.5058 189.644C50.5816 188.764 49.2182 188.905 48.4144 189.621C47.6107 190.337 47.2302 191.474 46.8802 192.572C46.5294 193.671 46.1581 194.812 45.365 195.541C44.6261 196.221 43.4571 196.736 43.6104 197.893C43.7926 199.271 45.5938 199.761 46.4265 200.937C46.2214 200.649 46.0475 202.49 46.1657 202.801C46.521 203.742 47.4079 204.364 48.0492 205.083C49.4149 206.615 50.0829 208.158 51.8924 209.053Z" fill="#FF7B5B"/>
<path fill-rule="evenodd" clip-rule="evenodd" d="M63.2151 203.472L58.5972 205.86C58.5972 205.86 64.1439 209.885 63.2151 203.472Z" fill="white"/>
<path fill-rule="evenodd" clip-rule="evenodd" d="M56.8619 204.419C57.1143 204.898 56.7407 205.59 56.0277 205.965C55.3147 206.341 54.5324 206.257 54.28 205.778C54.0283 205.299 54.4012 204.607 55.1142 204.232C55.8279 203.856 56.6095 203.94 56.8619 204.419Z" fill="#FFB2A0"/>
<path fill-rule="evenodd" clip-rule="evenodd" d="M63.605 199.814C63.8574 200.292 63.4837 200.985 62.7708 201.36C62.0578 201.735 61.2754 201.651 61.023 201.172C60.7714 200.694 61.1443 200.001 61.8572 199.626C62.571 199.251 63.3526 199.335 63.605 199.814Z" fill="#FFB2A0"/>
<path fill-rule="evenodd" clip-rule="evenodd" d="M59.9915 203.303C59.9701 203.276 60.0563 203.163 60.2561 203.018C60.4467 202.871 60.7784 202.713 61.0247 202.447C61.2687 202.19 61.3564 201.654 60.9828 201.579C60.5946 201.447 60.1539 201.892 59.6483 202.315C59.5233 202.419 59.3997 202.522 59.277 202.623C59.1626 202.729 58.9216 202.883 58.6715 202.851C58.1949 202.774 57.9921 202.456 57.8091 202.244C57.443 201.774 57.2173 201.282 57.0923 200.857C56.8444 199.997 56.9558 199.442 57.0153 199.446C57.0984 199.443 57.1258 199.976 57.4408 200.733C57.5994 201.108 57.8365 201.535 58.1819 201.939C58.3505 202.143 58.5625 202.334 58.7134 202.34C58.7767 202.343 58.8263 202.322 58.9453 202.222C59.0665 202.12 59.1885 202.017 59.312 201.914C59.5667 201.708 59.7871 201.5 60.0784 201.306C60.3613 201.115 60.7647 200.995 61.1261 201.118C61.512 201.219 61.7385 201.669 61.6714 201.981C61.6279 202.3 61.4693 202.535 61.2893 202.707C60.9088 203.025 60.5687 203.102 60.3544 203.198C60.1348 203.281 60.0143 203.333 59.9915 203.303Z" fill="#FF7B5B"/>
<path fill-rule="evenodd" clip-rule="evenodd" d="M58.8458 212.294C58.8458 212.294 61.7915 212.311 63.3898 211.326C63.3898 211.326 62.0378 212.987 59.3323 213.417L58.8458 212.294Z" fill="#FFA192"/>
<path fill-rule="evenodd" clip-rule="evenodd" d="M60.1232 199.085C60.0966 199.23 59.6848 199.275 59.2494 199.468C58.8079 199.646 58.4891 199.911 58.3663 199.828C58.2405 199.762 58.4487 199.236 59.045 198.985C59.6406 198.733 60.1621 198.948 60.1232 199.085Z" fill="#22343D"/>
<path fill-rule="evenodd" clip-rule="evenodd" d="M54.3505 202.872C54.2392 202.789 54.4138 202.315 54.8378 201.84C55.2671 201.355 55.8154 201.194 55.8733 201.329C55.9343 201.461 55.6003 201.769 55.2244 202.195C54.8424 202.619 54.471 202.962 54.3505 202.872Z" fill="#22343D"/>
<path fill-rule="evenodd" clip-rule="evenodd" d="M52.1128 202.14C51.8741 201.963 51.6881 201.206 52.6016 200.186C53.5235 199.143 54.5537 199.327 54.6772 199.617C54.8099 199.901 54.4668 200.306 53.6577 201.223C52.8364 202.137 52.3713 202.334 52.1128 202.14Z" fill="#FF7B5B"/>
<path fill-rule="evenodd" clip-rule="evenodd" d="M56.9621 198.121C56.8302 197.874 56.9759 197.155 58.1639 196.654C59.3687 196.137 60.1717 196.708 60.1602 197.004C60.158 197.299 59.7042 197.506 58.6458 197.962C57.5798 198.409 57.1047 198.39 56.9621 198.121Z" fill="#FF7B5B"/>
<path fill-rule="evenodd" clip-rule="evenodd" d="M310.365 205.273C310.443 205.35 309.163 206.789 306.508 208.357C303.886 209.923 299.76 211.475 295.014 211.51C290.268 211.545 286.118 210.054 283.473 208.527C280.796 206.999 279.495 205.577 279.571 205.499C279.682 205.359 281.137 206.558 283.818 207.87C286.473 209.188 290.475 210.495 295.005 210.463C299.537 210.428 303.518 209.062 306.154 207.706C308.815 206.354 310.253 205.134 310.365 205.273Z" fill="#775298"/>
<path fill-rule="evenodd" clip-rule="evenodd" d="M281.411 203.099C281.338 203.258 279.922 202.67 277.535 202.138C276.345 201.857 274.902 201.641 273.294 201.441C271.681 201.263 269.897 201.121 268.014 200.987C266.129 200.855 264.326 200.703 262.688 200.5C261.05 200.283 259.578 200.024 258.366 199.697C255.932 199.061 254.553 198.31 254.601 198.204C254.664 198.044 256.114 198.538 258.524 198.972C259.727 199.202 261.178 199.379 262.794 199.54C264.414 199.688 266.203 199.809 268.089 199.942C269.977 200.076 271.784 200.249 273.42 200.484C275.056 200.741 276.523 201.04 277.723 201.421C280.133 202.157 281.465 202.999 281.411 203.099Z" fill="#775298"/>
<mask id="mask0" mask-type="alpha" maskUnits="userSpaceOnUse" x="243" y="162" width="96" height="48">
<path fill-rule="evenodd" clip-rule="evenodd" d="M243.137 162.705H338.209V209.279H243.137V162.705Z" fill="white"/>
</mask>
<g mask="url(#mask0)">
<path fill-rule="evenodd" clip-rule="evenodd" d="M252.7 172.139C257.225 171.179 261.913 172.005 266.475 172.765C271.038 173.525 275.775 174.211 280.236 172.986C288.29 170.776 294.404 162.64 302.756 162.705C306.195 162.732 309.437 164.201 312.788 164.978C316.948 165.943 321.282 165.839 325.497 166.528C329.712 167.216 334.067 168.911 336.449 172.456C339.275 176.662 338.5 182.596 335.534 186.705C332.569 190.816 327.82 193.318 322.954 194.736C319.56 195.725 315.944 196.297 313.007 198.265C310.036 200.256 308.096 203.46 305.328 205.723C298.382 211.403 287.572 209.775 280.397 204.387C278.594 203.034 276.924 201.463 274.898 200.473C266.661 196.441 254.813 201.778 247.718 194.443C240.514 186.993 241.54 174.505 252.7 172.139Z" fill="#B57AD2"/>
</g>
<path fill-rule="evenodd" clip-rule="evenodd" d="M250.439 316.417C250.439 316.417 257.987 332.593 258.87 329.598C259.751 326.602 259.459 319.408 258.986 318.381C258.511 317.354 255.426 312.816 255.426 312.816L250.439 316.417Z" fill="#FFB2A0"/>
<path fill-rule="evenodd" clip-rule="evenodd" d="M305.015 185.615C305.714 186.509 305.247 185.548 306.038 186.839C309.325 186.724 311.531 183.944 311.531 183.944C311.531 183.944 316.747 184.082 316.687 183.15C316.627 182.217 311.686 182.565 311.686 182.565C311.686 182.565 316.913 180.923 316.627 180.104C316.342 179.285 310.307 181.897 310.307 181.897C310.307 181.897 316.396 178.118 315.497 177.511C314.598 176.907 308.738 180.206 308.738 180.206C308.738 180.206 313.83 176.024 313.067 175.485C312.305 174.946 305.242 180.389 305.242 180.389C305.345 177.711 303.424 177.805 303.424 177.805L303.503 184.343C303.503 184.343 304.694 185.203 305.015 185.615Z" fill="#FFC6B2"/>
<path fill-rule="evenodd" clip-rule="evenodd" d="M227.691 156.025C226.574 156.231 227.44 155.843 225.991 156.285C223.611 154.016 223.927 150.45 223.927 150.45C223.927 150.45 219.936 147.09 220.598 146.434C221.263 145.776 224.726 149.317 224.726 149.317C224.726 149.317 221.908 144.618 222.666 144.196C223.424 143.774 226.203 149.733 226.203 149.733C226.203 149.733 224.158 142.864 225.233 143.008C226.307 143.152 228.498 149.508 228.498 149.508C228.498 149.508 227.467 143.001 228.394 143.104C229.322 143.206 230.991 151.966 230.991 151.966C232.692 149.895 234.065 151.241 234.065 151.241L229.754 155.981C229.754 155.981 228.204 155.931 227.691 156.025Z" fill="#FFC6B2"/>
<path fill-rule="evenodd" clip-rule="evenodd" d="M254.767 183.335C253.323 183.098 249.833 185.417 248.087 189.197C247.109 191.313 246.437 193.463 247.558 196.904C248.087 198.522 249.193 198.725 249.44 199.45C249.751 200.368 248.718 203.262 248.718 203.262L252.838 204.925C253.106 202.938 253.409 200.938 255.436 200.075C256.193 199.751 257.005 199.547 257.72 199.137C259.65 198.031 260.681 195.611 261.474 193.629C262.066 192.149 258.386 183.928 254.767 183.335Z" fill="#FFC6B2"/>
<path fill-rule="evenodd" clip-rule="evenodd" d="M249.862 239.516L242.96 236.747C242.96 236.747 222.475 274.73 222.56 285.269C222.645 295.807 250.695 316.906 250.695 316.906L255.426 312.818C255.426 312.818 246.766 297.719 242.136 292.396C237.506 287.071 249.862 239.516 249.862 239.516Z" fill="#FFB2A0"/>
<path fill-rule="evenodd" clip-rule="evenodd" d="M284.134 282.784C284.134 282.784 299.348 275.567 296.291 274.929C293.234 274.295 286.084 275.17 285.1 275.725C284.114 276.281 279.842 279.723 279.842 279.723L284.134 282.784Z" fill="#FFC6B2"/>
<path fill-rule="evenodd" clip-rule="evenodd" d="M256.643 239.186L246.171 242.995C246.171 242.995 235.697 289.059 239.696 296.291C243.693 303.526 254.923 298.739 270.917 290.011L284.313 282.699L279.841 279.723C279.841 279.723 264.253 282.777 259.875 285.823C259.875 285.823 262.16 279.35 265.206 270.214C268.252 261.076 270.352 251.749 256.643 239.186Z" fill="#FFC6B2"/>
<path fill-rule="evenodd" clip-rule="evenodd" d="M243.754 207.803C243.754 204.743 244.739 202.529 247.8 202.529C250.861 202.529 255.092 203.602 255.092 206.663C255.092 209.725 252.68 214.696 249.618 214.696C246.557 214.696 243.754 210.865 243.754 207.803Z" fill="#FFC6B2"/>
<path fill-rule="evenodd" clip-rule="evenodd" d="M246.171 202.091C246.171 202.091 236.653 191.792 234.749 181.702C232.844 171.614 229.609 155.243 229.609 155.243L225.992 156.285C225.992 156.285 224.278 178.657 225.992 182.083C227.704 185.51 236.076 208.321 238.626 214.311L246.171 202.091Z" fill="#FFC6B2"/>
<path fill-rule="evenodd" clip-rule="evenodd" d="M256.397 210.118C256.397 210.118 257.129 206.914 269.165 202.56C281.201 198.206 303.908 184.094 303.908 184.094L306.174 186.685C306.174 186.685 293.836 200.935 286.658 203.434C279.48 205.934 264.234 215.789 262.666 216.577C260.293 217.771 260.322 219.272 256.397 210.118Z" fill="#FFC6B2"/>
<path fill-rule="evenodd" clip-rule="evenodd" d="M246.171 202.091C246.171 202.091 236.5 205.225 236.5 219.938C236.5 219.938 236.506 240.089 238.786 243.754C238.786 243.754 242.491 244.704 247.11 243.754C251.954 242.759 256.642 239.186 256.642 239.186L264.249 216.351L263.34 205.652L252.997 203.655C252.997 203.655 255.964 217.519 245.228 211.559C243.142 210.401 248.298 202.535 248.298 202.535L246.171 202.091Z" fill="#22343D"/>
<path fill-rule="evenodd" clip-rule="evenodd" d="M237.988 214.057L233.223 204.131C233.223 204.131 233.907 198.109 242.654 195.951C242.654 195.951 243.539 198.987 244.509 200.146C245.478 201.305 248.301 202.539 248.301 202.539L237.988 214.057Z" fill="#22343D"/>
<path fill-rule="evenodd" clip-rule="evenodd" d="M256.004 218.048L271.156 214.942C271.156 214.942 273.791 209.485 267.544 202.992C267.544 202.992 255.725 203.706 254.195 203.833C252.689 203.958 253.723 205.118 253.723 205.118L256.004 218.048Z" fill="#22343D"/>
<path fill-rule="evenodd" clip-rule="evenodd" d="M238.761 238.846C238.761 238.846 224.429 265.341 222.062 270.075C222.062 270.075 264.344 289.495 281.508 266.119C281.508 266.119 271.745 245.456 256.651 237.59L250.139 235.641L239.016 238.719" fill="#22343D"/>
<path fill-rule="evenodd" clip-rule="evenodd" d="M260.919 193.378C260.919 193.378 262.552 191.746 263.556 192.876C264.56 194.006 259.915 195.638 259.915 195.638L260.919 193.378Z" fill="#FFC6B2"/>
<path fill-rule="evenodd" clip-rule="evenodd" d="M290.782 171.115C290.798 171.171 290.167 171.444 288.963 171.73C287.762 172.019 285.98 172.282 283.766 172.327C281.554 172.371 278.923 172.174 276.044 171.784C273.162 171.402 270.032 170.841 266.739 170.481C263.451 170.13 260.289 170.066 257.489 170.518C254.688 170.962 252.264 171.88 250.411 172.951C248.558 174.031 247.269 175.228 246.477 176.135C245.681 177.042 245.323 177.622 245.242 177.573C245.198 177.55 245.437 176.897 246.158 175.88C246.875 174.866 248.14 173.528 250.027 172.318C251.912 171.116 254.418 170.083 257.329 169.566C260.244 169.041 263.505 169.082 266.85 169.44C270.198 169.805 273.332 170.398 276.181 170.828C279.028 171.267 281.602 171.535 283.769 171.585C288.113 171.707 290.742 170.936 290.782 171.115Z" fill="#775298"/>
<path fill-rule="evenodd" clip-rule="evenodd" d="M252.605 192.451C252.601 192.515 252.136 192.56 251.426 192.325C251.25 192.263 251.043 192.182 250.85 192.005C250.755 191.917 250.666 191.799 250.612 191.658C250.534 191.461 250.54 191.237 250.617 191.066C250.64 191.032 250.639 190.95 250.684 190.949L250.822 190.944C250.91 190.932 251.015 190.961 251.117 190.98C251.304 191.016 251.365 191.01 251.498 191.019C251.732 191.025 251.975 191 252.217 190.947C253.208 190.738 253.872 190.017 254.169 189.424C254.481 188.827 254.509 188.378 254.592 188.383C254.65 188.375 254.766 188.853 254.509 189.573C254.377 189.926 254.149 190.331 253.781 190.686C253.415 191.041 252.908 191.332 252.332 191.458C252.045 191.522 251.756 191.546 251.477 191.532C251.356 191.526 251.166 191.501 251.11 191.489C251.059 191.481 251.065 191.469 251.055 191.475C251.049 191.482 251.046 191.491 251.047 191.506C251.067 191.575 251.105 191.64 251.157 191.699C251.263 191.819 251.417 191.908 251.567 191.982C252.181 192.284 252.617 192.373 252.605 192.451Z" fill="#FF7B5B"/>
<path fill-rule="evenodd" clip-rule="evenodd" d="M249.206 192.628L254.788 194.827C254.788 194.827 249.883 198.209 249.206 192.628Z" fill="white"/>
<path fill-rule="evenodd" clip-rule="evenodd" d="M257.172 193.686C256.973 194.062 256.359 194.128 255.798 193.833C255.238 193.539 254.944 192.994 255.142 192.618C255.34 192.242 255.955 192.175 256.516 192.47C257.076 192.766 257.37 193.309 257.172 193.686Z" fill="#FFB2A0"/>
<path fill-rule="evenodd" clip-rule="evenodd" d="M250.942 190.383C250.773 190.773 250.165 190.886 249.584 190.635C249.003 190.383 248.668 189.863 248.837 189.473C249.006 189.082 249.614 188.969 250.196 189.221C250.777 189.473 251.111 189.993 250.942 190.383Z" fill="#FFB2A0"/>
<path fill-rule="evenodd" clip-rule="evenodd" d="M248.874 198.749C248.874 198.749 250.831 200.388 252.873 199.86C252.873 199.86 252.169 200.915 249.459 200.528C249.459 200.528 249.684 199.365 248.874 198.749Z" fill="#FFA192"/>
<path fill-rule="evenodd" clip-rule="evenodd" d="M256.636 190.181C256.636 190.424 256.438 190.623 256.194 190.623C255.95 190.623 255.752 190.424 255.752 190.181C255.752 189.937 255.95 189.738 256.194 189.738C256.438 189.738 256.636 189.937 256.636 190.181Z" fill="#22343D"/>
<path fill-rule="evenodd" clip-rule="evenodd" d="M253.017 188.878C253.017 189.122 252.819 189.32 252.575 189.32C252.331 189.32 252.133 189.122 252.133 188.878C252.133 188.634 252.331 188.436 252.575 188.436C252.819 188.436 253.017 188.634 253.017 188.878Z" fill="#22343D"/>
<path fill-rule="evenodd" clip-rule="evenodd" d="M258.057 189.004C257.921 189.062 257.657 188.743 257.257 188.484C256.866 188.214 256.469 188.093 256.47 187.945C256.457 187.803 257.011 187.688 257.548 188.049C258.087 188.407 258.194 188.962 258.057 189.004Z" fill="#775298"/>
<path fill-rule="evenodd" clip-rule="evenodd" d="M251.679 186.857C251.67 186.719 252.145 186.546 252.781 186.562C253.428 186.576 253.906 186.89 253.84 187.021C253.779 187.154 253.328 187.097 252.76 187.086C252.189 187.069 251.688 187.008 251.679 186.857Z" fill="#775298"/>
<path fill-rule="evenodd" clip-rule="evenodd" d="M253.672 322.991C253.672 322.991 255.994 331.231 258.391 330.557C260.789 329.883 258.986 318.382 258.986 318.382L256.594 314.602C256.594 314.602 258.841 333.853 253.672 322.991Z" fill="#22343D"/>
<path fill-rule="evenodd" clip-rule="evenodd" d="M282.951 277.305C282.951 277.305 284.639 275.463 286.686 275.156C288.734 274.849 296.05 273.979 297.125 274.951C298.2 275.923 291.194 279.183 291.194 279.183C291.194 279.183 293.635 277.627 292.622 277.049C290.831 276.025 282.951 277.305 282.951 277.305Z" fill="#22343D"/>
<path fill-rule="evenodd" clip-rule="evenodd" d="M280.048 279.511L282.339 284.161L283.589 283.468L280.534 278.887L280.048 279.511Z" fill="#22343D"/>
<path fill-rule="evenodd" clip-rule="evenodd" d="M254.433 310.952L248.81 316.019L250.476 317.408L255.196 312.271L254.433 310.952Z" fill="#22343D"/>
<path fill-rule="evenodd" clip-rule="evenodd" d="M136.876 260.506C135.277 256.539 134.662 252.121 132.276 248.57C128.842 243.461 122.247 240.926 119.461 235.436C118.277 233.104 117.906 230.437 117.894 227.823C117.871 222.65 119.419 217.152 123.415 213.865C128.006 210.087 134.895 210.14 140.273 212.677C145.649 215.215 149.757 219.821 153.249 224.632C156.742 229.442 159.8 234.605 163.867 238.94C166.883 242.155 170.46 244.927 172.732 248.704C178.96 259.057 172.552 272.157 161.558 275.893C151.897 279.176 140.218 268.802 136.876 260.506Z" fill="#22343D"/>
<path fill-rule="evenodd" clip-rule="evenodd" d="M123.113 333.527C124.069 334.313 123.026 333.768 124.417 334.674C124.107 338.149 120.892 340.338 120.892 340.338C120.892 340.338 120.757 345.869 119.724 345.756C118.689 345.644 119.352 340.429 119.352 340.429C119.352 340.429 117.236 345.878 116.341 345.531C115.446 345.185 118.686 338.933 118.686 338.933C118.686 338.933 114.145 345.182 113.522 344.197C112.899 343.212 116.894 337.183 116.894 337.183C116.894 337.183 111.961 342.354 111.403 341.517C110.847 340.682 117.29 333.49 117.29 333.49C114.308 333.457 114.519 331.428 114.519 331.428L121.783 331.859C121.783 331.859 122.673 333.164 123.113 333.527Z" fill="#FFC6B2"/>
<path fill-rule="evenodd" clip-rule="evenodd" d="M192.508 229.201C193.751 229.419 192.786 229.008 194.399 229.477C197.048 227.07 196.697 223.289 196.697 223.289C196.697 223.289 201.139 219.727 200.403 219.031C199.661 218.333 195.807 222.087 195.807 222.087C195.807 222.087 198.943 217.106 198.1 216.657C197.258 216.21 194.164 222.529 194.164 222.529C194.164 222.529 196.44 215.245 195.243 215.398C194.049 215.551 191.61 222.29 191.61 222.29C191.61 222.29 192.757 215.391 191.725 215.5C190.692 215.608 189.022 224.647 189.022 224.647C186.59 222.668 184.887 223.935 184.887 223.935L190.211 229.155C190.211 229.155 191.937 229.102 192.508 229.201Z" fill="#FFC6B2"/>
<path fill-rule="evenodd" clip-rule="evenodd" d="M162.098 259.411C164.345 259.06 171.198 263.501 169.454 272.518C169.308 273.275 168.319 274.942 168.073 275.631C167.762 276.504 170.186 279.7 170.186 279.7L163.928 281.699C163.661 279.809 164.11 277.046 162.088 276.225C161.331 275.918 160.522 275.724 159.808 275.334C157.881 274.282 156.852 271.98 156.061 270.096C155.47 268.688 155.02 267.173 155.037 265.645C155.078 261.798 158.486 259.975 162.098 259.411Z" fill="#FFC6B2"/>
<path fill-rule="evenodd" clip-rule="evenodd" d="M174.63 284.108C174.63 280.862 173.6 279.623 170.193 279.623C166.786 279.623 162.289 280.862 162.289 284.108C162.289 287.354 164.695 291.417 168.103 291.417C171.51 291.417 174.63 287.354 174.63 284.108Z" fill="#FFC6B2"/>
<path fill-rule="evenodd" clip-rule="evenodd" d="M171.939 278.05C171.939 278.05 182.533 267.128 184.652 256.43C186.772 245.732 190.373 228.372 190.373 228.372L194.399 229.476C194.399 229.476 196.307 253.201 194.399 256.834C192.493 260.468 181.685 285.7 181.897 292.158L171.939 278.05Z" fill="#FFC6B2"/>
<path fill-rule="evenodd" clip-rule="evenodd" d="M153.055 283.338C153.055 283.338 149.453 283.943 143.943 296.459C138.434 308.974 121.482 332.273 121.482 332.273L124.237 334.81C124.237 334.81 140.765 322.498 143.943 315.029C147.121 307.561 151.147 298.276 153.055 298.679C154.961 299.083 163.014 287.98 153.055 283.338Z" fill="#FFC6B2"/>
<path fill-rule="evenodd" clip-rule="evenodd" d="M181.417 293.827L186.35 280.214C186.35 280.214 185.589 273.829 175.853 271.54L170.338 279.486L181.417 293.827Z" fill="#B57AD2"/>
<path fill-rule="evenodd" clip-rule="evenodd" d="M154.699 282.293C154.699 282.293 148.88 282.783 144.162 293.143C144.162 293.143 149.35 300.304 153.145 300.545C153.145 300.545 167.241 288.499 154.699 282.293Z" fill="#B57AD2"/>
<path fill-rule="evenodd" clip-rule="evenodd" d="M170.69 405.146C170.69 405.146 162.289 422.299 161.307 419.123C160.326 415.946 160.65 408.317 161.176 407.228C161.705 406.138 165.139 401.327 165.139 401.327L170.69 405.146Z" fill="#FFC6B2"/>
<path fill-rule="evenodd" clip-rule="evenodd" d="M171.332 323.597L179.014 320.66C179.014 320.66 201.814 360.939 201.72 372.115C201.625 383.288 170.405 405.663 170.405 405.663L165.139 401.327C165.139 401.327 179.937 379.573 185.09 373.928C187.666 371.104 169.22 357.269 166.426 343.956C163.632 330.644 171.332 323.597 171.332 323.597Z" fill="#22343D"/>
<path fill-rule="evenodd" clip-rule="evenodd" d="M125.14 396.16C125.14 396.16 109.425 407.741 110.079 404.491C110.734 401.238 114.69 394.598 115.682 393.859C116.676 393.122 122.041 390.344 122.041 390.344L125.14 396.16Z" fill="#FFC6B2"/>
<path fill-rule="evenodd" clip-rule="evenodd" d="M150.429 337.86L173.159 324.688C173.159 324.688 174.061 370.442 168.605 380.335C163.149 390.228 124.638 396.495 124.638 396.495L122.041 390.344C122.041 390.344 145.801 376.189 153.095 373.419C160.391 370.648 150.429 337.86 150.429 337.86Z" fill="#22343D"/>
<path fill-rule="evenodd" clip-rule="evenodd" d="M163.966 315.679C163.966 315.679 147.23 321.604 150.43 337.86C153.629 354.116 158.961 357.163 158.961 357.163L168.559 341.416L178.196 320.794L168.559 319.572L163.966 315.679Z" fill="#22343D"/>
<path fill-rule="evenodd" clip-rule="evenodd" d="M171.939 278.05C171.939 278.05 184.261 284.955 184.261 300.557C184.261 300.557 182.696 318.344 180.159 322.23C180.159 322.23 176.035 323.238 170.893 322.23C165.502 321.175 160.285 317.386 160.285 317.386L156.074 295.609L152.798 282.894L154.574 282.308L163.841 281.29C163.841 281.29 162.51 295.132 172.857 288.258C175.037 286.81 170.144 279.593 170.144 279.593L171.939 278.05Z" fill="#B57AD2"/>
<path fill-rule="evenodd" clip-rule="evenodd" d="M179.481 219.091L205.316 234.16L219.849 206.713L195.628 193.259L179.481 219.091Z" fill="white"/>
<path fill-rule="evenodd" clip-rule="evenodd" d="M215.422 350.477L233.9 339.04L218.634 312.397L201.744 323.349L215.422 350.477Z" fill="white"/>
<path fill-rule="evenodd" clip-rule="evenodd" d="M124.446 236.948C124.495 236.904 125.065 237.422 125.967 238.478C126.865 239.536 128.091 241.144 129.321 243.314C130.555 245.474 131.777 248.216 132.649 251.399C133.552 254.558 134.158 258.108 135.546 261.529C136.266 263.218 137.139 264.791 138.179 266.182C139.227 267.564 140.39 268.776 141.587 269.833C144.033 271.892 146.596 273.308 148.88 274.126C151.162 274.956 153.116 275.328 154.475 275.461C155.832 275.611 156.599 275.633 156.6 275.723C156.604 275.778 155.839 275.895 154.445 275.868C153.052 275.858 151.024 275.591 148.636 274.826C146.246 274.071 143.546 272.674 140.964 270.571C139.698 269.489 138.467 268.238 137.358 266.799C136.258 265.352 135.33 263.697 134.576 261.926C133.13 258.351 132.559 254.769 131.718 251.652C130.915 248.524 129.798 245.833 128.67 243.667C127.548 241.496 126.435 239.85 125.645 238.727C124.852 237.607 124.386 237 124.446 236.948Z" fill="#22343D"/>
<path fill-rule="evenodd" clip-rule="evenodd" d="M156.187 219.319C156.377 219.29 156.561 221.832 157.984 225.594C158.695 227.467 159.752 229.622 161.27 231.783C162.029 232.865 162.902 233.931 163.89 234.993C164.871 236.06 165.941 237.143 166.951 238.359C168.977 240.811 170.371 243.463 171.683 245.803C172.987 248.165 174.024 250.413 174.552 252.424C175.103 254.428 175.135 256.154 174.96 257.298C174.778 258.448 174.492 259.03 174.444 259.014C174.354 258.991 174.502 258.375 174.554 257.261C174.599 256.149 174.457 254.528 173.841 252.633C173.247 250.731 172.177 248.587 170.841 246.274C169.486 243.963 168.08 241.365 166.144 239.027C165.173 237.858 164.119 236.778 163.131 235.685C162.139 234.597 161.236 233.464 160.474 232.33C158.946 230.06 157.925 227.798 157.286 225.842C156.633 223.887 156.355 222.237 156.223 221.1C156.092 219.961 156.127 219.324 156.187 219.319Z" fill="#22343D"/>
<path fill-rule="evenodd" clip-rule="evenodd" d="M164.107 269.212C164.097 269.139 164.518 269.072 164.915 268.605C165.007 268.498 165.099 268.341 165.098 268.249C165.095 268.151 165.027 267.98 164.909 267.882C164.786 267.772 164.649 267.718 164.469 267.737C164.283 267.75 164.057 267.843 163.761 267.887C163.113 267.973 162.607 267.607 162.275 267.31C161.933 266.999 161.672 266.682 161.478 266.399C161.091 265.828 160.97 265.415 161.03 265.385C161.098 265.348 161.332 265.69 161.768 266.168C161.987 266.406 162.262 266.679 162.587 266.942C162.907 267.198 163.299 267.43 163.69 267.368C163.897 267.342 164.139 267.245 164.434 267.225C164.733 267.195 165.066 267.333 165.249 267.539C165.444 267.75 165.553 267.997 165.53 268.291C165.472 268.591 165.313 268.732 165.181 268.863C164.611 269.361 164.089 269.28 164.107 269.212Z" fill="#FF7B5B"/>
<path fill-rule="evenodd" clip-rule="evenodd" d="M167.16 269.642L162.199 271.446C162.199 271.446 166.409 275.128 167.16 269.642Z" fill="white"/>
<path fill-rule="evenodd" clip-rule="evenodd" d="M161.703 269.335C161.902 269.711 161.608 270.256 161.048 270.55C160.487 270.845 159.873 270.78 159.674 270.403C159.476 270.027 159.77 269.483 160.33 269.188C160.891 268.892 161.505 268.958 161.703 269.335Z" fill="#FFB2A0"/>
<path fill-rule="evenodd" clip-rule="evenodd" d="M167.586 266.319C167.748 266.712 167.405 267.226 166.82 267.468C166.234 267.71 165.628 267.587 165.466 267.194C165.303 266.801 165.646 266.287 166.232 266.045C166.817 265.803 167.423 265.925 167.586 266.319Z" fill="#FFB2A0"/>
<path fill-rule="evenodd" clip-rule="evenodd" d="M162.345 276.358C162.345 276.358 164.005 276.695 166.121 276.167C166.121 276.167 165.078 277.18 163.374 277.416C163.374 277.416 162.992 276.71 162.345 276.358Z" fill="#FFA192"/>
<path fill-rule="evenodd" clip-rule="evenodd" d="M164.041 265.205C164.227 265.363 164.25 265.642 164.092 265.828C163.935 266.014 163.656 266.037 163.469 265.879C163.283 265.722 163.26 265.443 163.418 265.257C163.576 265.071 163.855 265.048 164.041 265.205Z" fill="#22343D"/>
<path fill-rule="evenodd" clip-rule="evenodd" d="M160.707 267.123C160.893 267.281 160.916 267.56 160.758 267.746C160.601 267.932 160.322 267.955 160.135 267.797C159.949 267.64 159.926 267.361 160.084 267.175C160.242 266.988 160.521 266.966 160.707 267.123Z" fill="#22343D"/>
<path fill-rule="evenodd" clip-rule="evenodd" d="M164.061 263.36C164.017 263.502 163.603 263.497 163.148 263.635C162.688 263.758 162.34 263.982 162.227 263.886C162.11 263.805 162.38 263.308 163.003 263.131C163.625 262.952 164.117 263.229 164.061 263.36Z" fill="#22343D"/>
<path fill-rule="evenodd" clip-rule="evenodd" d="M158.301 266.838C158.19 266.756 158.364 266.282 158.788 265.807C159.217 265.322 159.766 265.161 159.823 265.296C159.885 265.428 159.55 265.735 159.174 266.161C158.793 266.586 158.421 266.929 158.301 266.838Z" fill="#22343D"/>
<path fill-rule="evenodd" clip-rule="evenodd" d="M156.43 270.522C156.43 270.522 154.838 269.186 154.074 270.395C153.311 271.604 157.512 272.241 157.512 272.241L156.43 270.522Z" fill="#FFC6B2"/>
<path fill-rule="evenodd" clip-rule="evenodd" d="M118.164 392.396C118.164 392.396 115.882 393.387 115.287 393.983C114.692 394.578 109.236 404 109.931 405.19C110.625 406.38 116.097 402.34 116.097 402.34C116.097 402.34 111.518 403.207 118.164 392.396Z" fill="#B57AD2"/>
<path fill-rule="evenodd" clip-rule="evenodd" d="M162.685 404.856C162.685 404.856 161.064 406.608 160.814 407.412C160.564 408.215 160.117 419.094 161.286 419.824C162.454 420.555 165.647 414.553 165.647 414.553C165.647 414.553 161.829 417.543 162.685 404.882" fill="#B57AD2"/>
<defs>
<linearGradient id="paint0_linear" x1="-85.8602" y1="0" x2="-85.8602" y2="575.713" gradientUnits="userSpaceOnUse">
<stop stop-color="#B57AD2" stop-opacity="0.776388"/>
<stop offset="1" stop-color="#FFF4E5" stop-opacity="0.01"/>
</linearGradient>
</defs>
</svg>
